<svg width="159" height="42" viewBox="0 0 159 42" fill="none" xmlns="http://www.w3.org/2000/svg">
<g clip-path="url(#clip0_1_799)">
<g clip-path="url(#clip1_1_799)">
<g clip-path="url(#clip2_1_799)">
<path fill-rule="evenodd" clip-rule="evenodd" d="M25.2405 37.8023C24.9738 38.4265 24.7996 39.2736 25.1944 39.8034C26.0635 40.9704 31.5324 37.9764 32.297 36.9464C29.234 38.3584 29.1003 37.0971 30.153 35.758C30.1975 35.7012 30.2447 35.6451 30.2943 35.589C29.9189 35.7741 29.5365 35.9595 29.1443 36.1485C27.7883 36.7341 26.5053 37.2949 25.2405 37.8023Z" fill="#18354A"/>
<path fill-rule="evenodd" clip-rule="evenodd" d="M12.8737 22.6906C14.0966 20.79 16.579 17.855 18.8622 15.7387C16.2982 16.8789 14.0956 17.3681 11.6458 17.8924C10.575 18.1217 9.45795 18.3789 8.33774 18.5042C7.73576 19.2601 7.24007 19.9507 6.69181 20.7313C6.0336 21.6688 5.51208 22.5996 4.92957 23.5581C5.21127 23.5895 5.49398 23.6086 5.77499 23.6187C7.37014 23.6757 8.92688 23.5364 10.4459 23.242C11.2598 23.0769 12.0691 22.8927 12.8737 22.6906Z" fill="#18354A"/>
<path fill-rule="evenodd" clip-rule="evenodd" d="M23.007 31.6493C24.003 30.0073 26.3306 27.2865 28.5781 25.2133C28.2088 25.3883 27.8577 25.5539 27.5307 25.7091C24.3125 27.2641 20.5421 28.6949 16.8661 29.7503C15.7801 31.2053 15.0779 32.5162 14.4951 34.0855C16.3868 33.7585 18.3183 33.2302 20.05 32.6691C21.0676 32.337 22.0408 32.0058 23.007 31.6493Z" fill="#18354A"/>
<path fill-rule="evenodd" clip-rule="evenodd" d="M13.7503 39.6997C14.617 40.4762 15.4801 40.9704 16.643 41.2148C18.533 41.6122 20.5516 41.6144 22.3305 41.363C20.9929 41.492 19.4487 40.3617 19.6665 39.0888C19.4421 39.1396 19.216 39.1875 18.9878 39.2329C17.3326 39.5609 15.4984 39.753 13.7503 39.6997Z" fill="#18354A"/>
<path fill-rule="evenodd" clip-rule="evenodd" d="M7.37374 34.7213C6.96769 33.9531 7.39409 31.6532 8.04321 30.8025C7.73417 30.8128 7.42531 30.8152 7.11828 30.8087C5.78086 30.7806 4.22904 30.5769 2.83397 29.9098C2.75713 30.4766 2.92948 31.623 3.1735 32.201C3.48275 32.5871 3.91539 33.1681 5.06866 33.838C5.78433 34.2533 6.56371 34.5362 7.37374 34.7213Z" fill="#18354A"/>
<path fill-rule="evenodd" clip-rule="evenodd" d="M25.879 3.59863C25.1684 3.68581 22.4174 5.49452 21.565 6.11173C20.243 7.06863 18.5139 8.3409 17.2864 9.50116C19.7793 8.20582 24.9299 5.04951 25.879 3.59863Z" fill="#18354A"/>
<path fill-rule="evenodd" clip-rule="evenodd" d="M36.3813 11.7663C34.9478 12.0388 33.0221 13.4897 32.2847 14.0162C31.4574 14.6069 29.132 16.3317 28.42 17.0578C31.2019 15.3959 35.3219 12.6898 36.3813 11.7663Z" fill="#18354A"/>
<path fill-rule="evenodd" clip-rule="evenodd" d="M39.3597 23.3112L39.35 23.0983C38.4915 23.6534 37.9355 24.0585 37.0808 24.6954C36.7329 24.9548 36.2084 25.3172 35.7167 25.6864C37.0335 24.8835 38.2912 24.072 39.3597 23.3112Z" fill="#18354A"/>
<path fill-rule="evenodd" clip-rule="evenodd" d="M2.83383 29.9097C5.7757 31.3163 9.7304 30.8244 12.8596 30.1438C17.6057 29.1122 22.9214 27.2481 27.2419 25.1606C30.619 23.5579 36.5411 20.8508 38.9431 18.0339C38.4997 15.6911 37.6447 13.7492 36.3812 11.7663C35.0263 12.9471 28.6675 17.043 26.5007 18.1429C21.4204 20.7214 16.0405 22.7564 10.4459 23.891C8.92684 24.1854 7.3701 24.3247 5.77494 24.2677C4.59635 24.2254 3.38726 24.0251 2.35203 23.4236C1.17955 22.7421 0.786806 21.6299 0.821729 19.2239C0.0140715 21.7695 0.197711 28.2558 2.83383 29.9097Z" fill="#18354A"/>
<path fill-rule="evenodd" clip-rule="evenodd" d="M18.988 39.2329C22.4614 38.5448 25.4767 37.1987 28.9796 35.6855C31.1124 34.6583 32.959 33.7304 34.9425 32.4298C35.5909 32.0044 37.0767 31.017 37.5611 30.3165C38.4145 28.6467 39.3641 25.0856 39.36 23.3112C35.0289 26.3953 27.5871 30.3109 25.7082 31.1243C23.7944 31.9528 21.9868 32.5941 20.012 33.2387C17.7071 33.9856 15.0481 34.674 12.6 34.9074C10.1346 35.1424 7.29394 35.1295 5.06868 33.838C3.91538 33.1681 3.48277 32.5871 3.17352 32.2011C3.7312 33.6437 5.83551 36.0617 7.39389 37.2542C8.3554 37.9897 9.4518 38.8119 10.623 39.2064C11.2938 39.4326 11.8689 39.5467 12.433 39.6092C14.5506 39.8426 16.9104 39.6448 18.988 39.2329Z" fill="#18354A"/>
<path fill-rule="evenodd" clip-rule="evenodd" d="M11.3404 17.2815C13.8092 16.7532 16.0269 16.2605 18.6165 15.1013C21.3546 13.8269 28.9009 10.1428 31.4424 6.44868C29.5079 4.99299 27.7117 4.28067 25.8792 3.59863C24.8212 5.21578 18.5431 8.95199 16.544 9.86824C14.0662 11.0042 11.4502 11.9153 9.18426 12.1724C3.95323 12.8383 5.88884 8.0357 9.64128 6.40598C7.78471 6.81926 5.28863 8.24704 3.76273 10.3127C1.76746 13.0137 1.26295 16.5373 4.31879 17.5932C6.59397 18.3794 9.07103 17.7674 11.3404 17.2815Z" fill="#18354A"/>
<path fill-rule="evenodd" clip-rule="evenodd" d="M9.08375 4.42511C8.85601 4.33659 8.69312 4.21116 8.61629 4.03574L8.55634 3.89974L8.70173 3.8006C8.97766 3.61093 9.23725 3.58109 9.61574 3.53734L16.3719 2.7509C16.6542 2.71761 16.9602 2.67076 17.2498 2.60144C17.5266 2.5352 17.7839 2.44894 17.9808 2.33538L20.1346 1.0925C20.4503 0.910153 20.8031 0.800016 21.1812 0.763572C21.5501 0.727889 21.9422 0.76243 22.3462 0.868844L22.4971 0.908736L22.4781 1.05272C22.4543 1.23316 22.3808 1.45731 22.243 1.67138C22.13 1.84719 21.9732 2.01723 21.7649 2.15258L19.2535 3.78803C18.7573 4.11124 18.6938 4.28521 18.5784 4.60167C18.5466 4.689 18.5117 4.78516 18.4735 4.87785C18.3781 5.10985 18.271 5.36468 18.1661 5.61399C17.8181 6.44083 17.4893 7.22248 17.1942 8.15674L17.1288 8.36427L16.9069 8.31712C16.8934 8.31422 16.8676 8.31131 16.8407 8.30797C16.5916 8.2788 16.2412 8.2377 16.1789 7.58L16.0529 6.25561C16.0507 6.23318 16.0496 6.19439 16.0481 6.15386L16.0482 6.15298C16.0457 6.07385 16.0425 5.97936 16.0145 5.91985C15.9917 5.87103 15.9074 5.85882 15.6567 5.97252C15.0774 6.23498 14.6515 6.43001 14.2106 6.63161C13.4448 6.96254 10.9191 7.51531 9.19354 7.47561C9.37848 7.41095 9.55563 7.34529 9.72275 7.27953L8.97734 6.95377L9.37574 6.76871L10.1541 6.4296L9.01134 5.95129C8.85125 5.87166 8.95492 5.76253 9.09198 5.71665L10.4227 5.24136C10.4719 5.22386 10.5288 5.21925 10.5773 5.22452L12.9982 5.42734L14.0574 4.88709C14.0237 4.86772 13.8568 4.78159 13.7949 4.76973C13.4358 4.70098 10.2659 4.61633 9.83333 4.58659C9.54109 4.55392 9.28544 4.50349 9.08375 4.42511Z" fill="#18354A"/>
<path d="M154.273 10.5846C155.176 10.9249 155.976 11.4354 156.674 12.1154C158.072 13.4766 158.771 15.6469 158.771 18.6257V28.7983H154.478V18.8373C154.478 17.9977 154.389 17.2617 154.213 16.6301C154.039 16.0077 153.78 15.4849 153.435 15.0622C153.094 14.6449 152.673 14.3314 152.173 14.1223C151.666 13.9107 151.074 13.8048 150.398 13.8048C149.676 13.8048 149.034 13.9294 148.473 14.1779C147.914 14.4254 147.431 14.797 147.024 15.2923C146.615 15.7915 146.307 16.3877 146.101 17.0799C145.893 17.7786 145.788 18.5762 145.788 19.4724V28.7983H141.53V10.2875H145.257L145.63 12.3696C146.27 11.6638 147.017 11.1206 147.872 10.7398C148.867 10.2971 150.002 10.0759 151.279 10.0759C152.376 10.0759 153.374 10.2455 154.273 10.5846Z" fill="#18354A"/>
<path d="M126.864 28.7172C126.043 28.5219 125.274 28.2277 124.556 27.8354C123.835 27.4422 123.198 26.9679 122.643 26.4129C122.088 25.8579 121.614 25.2204 121.22 24.5006C120.828 23.7825 120.534 23.0093 120.339 22.1822C120.144 21.3567 120.046 20.4768 120.046 19.5429C120.046 18.6201 120.144 17.7487 120.339 16.9292C120.534 16.1086 120.828 15.3389 121.22 14.6207C121.613 13.9022 122.087 13.2632 122.643 12.7046C123.198 12.1458 123.836 11.6671 124.554 11.2688C125.271 10.8712 126.041 10.5727 126.863 10.374C127.685 10.1754 128.557 10.0759 129.478 10.0759C130.399 10.0759 131.271 10.1754 132.092 10.374C132.914 10.5727 133.684 10.8712 134.402 11.2688C135.12 11.6673 135.757 12.1458 136.312 12.7046C136.868 13.2632 137.342 13.9022 137.735 14.6207C138.127 15.3389 138.421 16.1086 138.617 16.9292C138.812 17.7487 138.909 18.6201 138.909 19.5429C138.909 20.4768 138.812 21.3569 138.617 22.1822C138.421 23.0095 138.127 23.7825 137.735 24.5006C137.342 25.2188 136.868 25.8562 136.312 26.412C135.756 26.9689 135.118 27.4432 134.4 27.8354C132.967 28.6182 131.326 29.0099 129.478 29.0099C128.555 29.0099 127.683 28.9123 126.864 28.7172ZM131.555 24.9167C132.167 24.6511 132.706 24.2514 133.172 23.7176C134.111 22.6432 134.581 21.2516 134.581 19.5429C134.581 18.6848 134.463 17.9074 134.227 17.2113C133.992 16.5184 133.641 15.9039 133.172 15.3682C132.706 14.8346 132.167 14.4346 131.555 14.1691C130.94 13.9028 130.248 13.7695 129.478 13.7695C128.708 13.7695 128.017 13.9028 127.406 14.1693C126.796 14.4348 126.261 14.8346 125.801 15.3675C125.338 15.9035 124.991 16.518 124.759 17.2103C124.526 17.9063 124.41 18.6838 124.41 19.5429C124.41 20.4019 124.526 21.1795 124.759 21.8754C124.991 22.5676 125.338 23.1824 125.801 23.7183C126.261 24.2516 126.796 24.6509 127.406 24.9167C128.017 25.183 128.708 25.3165 129.478 25.3165C130.248 25.3165 130.94 25.183 131.555 24.9167Z" fill="#18354A"/>
<path d="M113.552 10.5733C114.388 10.9056 115.128 11.4036 115.773 12.0668C116.421 12.7333 116.907 13.5972 117.229 14.6582C117.547 15.7073 117.707 16.9477 117.707 18.3786V28.7983H113.449V18.4141C113.449 17.6442 113.372 16.9692 113.218 16.3894C113.067 15.8188 112.842 15.3395 112.543 14.9521C111.954 14.1874 111.072 13.8048 109.898 13.8048C109.27 13.8048 108.711 13.9143 108.221 14.1331C107.732 14.3513 107.307 14.679 106.948 15.116C106.218 16.0029 105.853 17.2319 105.853 18.8021V28.7983H101.56V18.4141C101.56 17.6334 101.481 16.9513 101.325 16.3682C101.172 15.7957 100.942 15.3183 100.639 14.937C100.339 14.5608 99.9691 14.2785 99.531 14.0907C99.0867 13.9001 98.5672 13.8048 97.9737 13.8048C97.359 13.8048 96.8096 13.918 96.3264 14.1445C95.8445 14.3703 95.4225 14.711 95.0617 15.1664C94.6978 15.6258 94.424 16.1651 94.2411 16.7836C94.0566 17.4085 93.9642 18.1167 93.9642 18.9078V28.7983H89.7062V10.2875H93.4331L93.8037 12.3574C94.4026 11.6698 95.0898 11.1373 95.8647 10.7601C96.7762 10.3168 97.8078 10.0888 98.9599 10.0768L98.9615 10.0759C99.6121 10.0759 100.227 10.146 100.804 10.2858C101.384 10.426 101.923 10.6364 102.422 10.9162C102.926 11.1985 103.371 11.555 103.758 11.9848C104.062 12.3218 104.329 12.7046 104.56 13.1331C104.835 12.7319 105.144 12.3672 105.483 12.0395C105.914 11.6239 106.397 11.2669 106.932 10.9692C107.468 10.6707 108.058 10.4468 108.701 10.2981C109.342 10.15 110.035 10.0759 110.78 10.0759C111.794 10.0759 112.719 10.2419 113.552 10.5733Z" fill="#18354A"/>
<path d="M86.3461 25.0341H87.3108V28.7983H85.076C84.4689 28.7983 83.9422 28.7332 83.4969 28.6034C83.038 28.4695 82.6661 28.2668 82.382 27.9953C82.0981 27.7243 81.8853 27.3925 81.744 27.0003C81.668 26.7896 81.6128 26.5626 81.5784 26.3188C80.9473 27.1331 80.2043 27.7632 79.3496 28.2084C78.3233 28.7426 77.1393 29.0099 75.7977 29.0099C74.7673 29.0099 73.8351 28.889 73.0015 28.6473C72.1629 28.4045 71.4265 28.039 70.7929 27.5516C70.1529 27.0594 69.6723 26.4734 69.3512 25.7944C69.0311 25.1169 68.8709 24.35 68.8709 23.494C68.8709 22.5331 69.0425 21.68 69.3859 20.9355C69.73 20.188 70.2469 19.5529 70.9357 19.0301C71.6182 18.5123 72.453 18.1244 73.4399 17.8672C74.4182 17.612 75.5454 17.4845 76.8208 17.4845H81.1479V16.6149C81.1479 16.1396 81.0665 15.7183 80.9038 15.3518C80.7414 14.9873 80.4976 14.6719 80.1727 14.4067C79.8431 14.1377 79.4483 13.9351 78.9894 13.7995C78.5233 13.6619 77.9884 13.5931 77.3853 13.5931C76.8508 13.5931 76.3654 13.6509 75.9295 13.7661C75.4981 13.88 75.113 14.0508 74.7752 14.2777C74.4415 14.5022 74.175 14.763 73.9767 15.0589C73.7802 15.3524 73.649 15.6842 73.584 16.0536L73.5512 16.239H69.3765L69.402 15.9923C69.4992 15.0555 69.7556 14.2223 70.1706 13.4928C70.5863 12.762 71.1612 12.1367 71.8945 11.6172C72.6227 11.1015 73.4607 10.715 74.4081 10.4585C75.3505 10.2035 76.402 10.0759 77.5616 10.0759C78.7942 10.0759 79.8886 10.2205 80.8448 10.509C81.8096 10.8001 82.6337 11.2386 83.3165 11.8234C84.0028 12.4117 84.5175 13.1286 84.8603 13.973C85.2003 14.8117 85.3706 15.7747 85.3706 16.8617V23.9881C85.3706 24.3524 85.45 24.6192 85.6093 24.7875C85.7645 24.9517 86.0105 25.0341 86.3461 25.0341ZM81.1485 21.1656L81.1479 20.7547H76.6445C76.0743 20.7547 75.5719 20.8098 75.1376 20.9197C74.7121 21.0274 74.352 21.1876 74.0584 21.3996C73.7723 21.6063 73.5578 21.8614 73.4156 22.1641C73.2715 22.4711 73.1992 22.8323 73.1992 23.2471C73.1992 23.6022 73.2667 23.92 73.4011 24.1998C73.5367 24.4805 73.7404 24.7278 74.0123 24.9411C74.2902 25.1582 74.6188 25.3217 74.9991 25.4308C75.3852 25.5429 75.828 25.5986 76.3269 25.5986C77.0898 25.5986 77.767 25.4967 78.3577 25.2933C78.9415 25.0923 79.442 24.7915 79.8589 24.3914C80.2768 23.9904 80.5931 23.5221 80.8073 22.9875C81.023 22.4491 81.1372 21.842 81.1485 21.1656Z" fill="#18354A"/>
<path d="M51.2037 13.8629V10.2874H66.4333V13.308L56.5993 24.9988H66.8922V28.7982H50.7805V25.7776L60.6145 14.0868H51.2037V13.8629Z" fill="#18354A"/>
<path d="M116.637 34.2334V41.1653H117.707V34.2334H116.637Z" fill="#18354A"/>
<path d="M111.116 37.2687C110.909 37.6614 110.805 38.1187 110.805 38.64C110.805 39.1553 110.912 39.6073 111.126 39.9968C111.341 40.3863 111.645 40.6881 112.038 40.9029C112.43 41.1173 112.891 41.2246 113.419 41.2246C114.026 41.2246 114.533 41.0596 114.939 40.7297C115.345 40.3992 115.594 39.9769 115.687 39.4622H114.617C114.545 39.7457 114.396 39.9656 114.171 40.1204C113.947 40.2756 113.67 40.3532 113.339 40.3532C112.924 40.3532 112.59 40.2245 112.339 39.9671C112.089 39.7095 111.95 39.3597 111.924 38.9172V38.8579H115.746C115.766 38.7192 115.776 38.5842 115.776 38.452C115.769 37.9635 115.659 37.5377 115.444 37.1747C115.23 36.8114 114.936 36.5307 114.563 36.3326C114.19 36.1349 113.759 36.0356 113.27 36.0356C112.789 36.0356 112.361 36.1428 111.988 36.3576C111.615 36.572 111.325 36.8757 111.116 37.2687ZM114.686 38.0758H111.963C112.003 37.7191 112.15 37.4337 112.404 37.2192C112.658 37.0044 112.96 36.8972 113.31 36.8972C113.686 36.8972 113.998 37.0013 114.246 37.2091C114.493 37.4169 114.64 37.7058 114.686 38.0758Z" fill="#18354A"/>
<path d="M105.596 36.0952L107.467 41.1653H108.775L110.646 36.0952H109.517L108.141 40.0163L106.745 36.0952H105.596Z" fill="#18354A"/>
<path d="M105.675 40.2343H105.467C105.243 40.2343 105.13 40.1157 105.13 39.8779V37.8777C105.13 37.2835 104.946 36.8281 104.576 36.5112C104.206 36.1942 103.681 36.0356 103.001 36.0356C102.361 36.0356 101.842 36.1759 101.447 36.4566C101.05 36.737 100.826 37.1318 100.773 37.6399H101.823C101.862 37.4154 101.983 37.2356 102.184 37.1C102.386 36.965 102.641 36.8972 102.952 36.8972C103.301 36.8972 103.576 36.9782 103.774 37.1397C103.972 37.3015 104.071 37.5245 104.071 37.808V38.1152H102.793C102.087 38.1152 101.549 38.2555 101.179 38.5359C100.81 38.8166 100.624 39.2178 100.624 39.7391C100.624 40.2015 100.796 40.5645 101.139 40.8285C101.483 41.0927 101.938 41.2246 102.506 41.2246C103.239 41.2246 103.797 40.9344 104.179 40.3532C104.179 40.6175 104.252 40.8187 104.398 40.9571C104.543 41.0959 104.78 41.1653 105.11 41.1653H105.675V40.2343ZM104.071 38.9074V39.0856C104.064 39.4818 103.937 39.7987 103.689 40.0365C103.442 40.274 103.097 40.3929 102.655 40.3929C102.364 40.3929 102.135 40.327 101.966 40.1948C101.798 40.0627 101.714 39.8877 101.714 39.67C101.714 39.4193 101.803 39.2295 101.981 39.1008C102.159 38.9718 102.414 38.9074 102.744 38.9074H104.071Z" fill="#18354A"/>
<path d="M100.337 36.0952H100.1C99.7105 36.0952 99.3998 36.163 99.169 36.2979C98.9381 36.4332 98.7498 36.62 98.6047 36.8578L98.4855 36.0952H97.5353V41.1653H98.6047V38.6201C98.6047 38.178 98.7038 37.8131 98.9015 37.5261C99.0999 37.2387 99.42 37.0952 99.8622 37.0952H100.337V36.0952Z" fill="#18354A"/>
<path d="M94.2811 37.0359V39.7886C94.2811 40.2573 94.3918 40.6039 94.6129 40.8284C94.834 41.053 95.1856 41.1653 95.6675 41.1653H96.6973V40.2245H95.8855C95.694 40.2245 95.5584 40.1832 95.4792 40.1005C95.4004 40.0182 95.3607 39.8779 95.3607 39.6798V37.0359H96.5787V36.0952H95.3607V34.6791H94.2811V36.0952H93.3996V37.0359H94.2811Z" fill="#18354A"/>
<path d="M86.7564 39.4915H85.7263C85.7396 40.033 85.9559 40.4569 86.3751 40.7641C86.7942 41.0713 87.3436 41.2246 88.0236 41.2246C88.4263 41.2246 88.7897 41.1602 89.1129 41.0316C89.4365 40.9026 89.6907 40.7181 89.8755 40.4771C90.0607 40.2362 90.1527 39.957 90.1527 39.6401C90.1527 39.2837 90.0638 39.0014 89.8856 38.7936C89.7074 38.5854 89.4696 38.4337 89.1725 38.3382C88.8754 38.2423 88.509 38.1713 88.0731 38.125C87.7498 38.0855 87.5152 38.0509 87.3701 38.0212C87.225 37.9916 87.1042 37.9386 87.0087 37.8626C86.9131 37.7869 86.8652 37.673 86.8652 37.521C86.8652 37.3166 86.9611 37.1545 87.1525 37.0359C87.3436 36.917 87.5947 36.8578 87.905 36.8578C88.2153 36.8578 88.4727 36.9319 88.6774 37.0804C88.8821 37.229 88.9975 37.4188 89.024 37.6497H90.0638C90.031 37.135 89.8146 36.7354 89.4151 36.4515C89.0158 36.1677 88.496 36.0258 87.8555 36.0258C87.466 36.0258 87.1178 36.0917 86.8106 36.2238C86.5037 36.356 86.2628 36.5424 86.0877 36.7833C85.913 37.0243 85.8253 37.2999 85.8253 37.6103C85.8253 37.9402 85.913 38.2026 86.0877 38.3975C86.2628 38.5924 86.4936 38.7343 86.781 38.8232C87.0683 38.9122 87.4329 38.9834 87.8753 39.0361C88.1986 39.0759 88.438 39.1137 88.5935 39.1503C88.7483 39.1862 88.8723 39.2474 88.9647 39.3332C89.0571 39.419 89.1031 39.5477 89.1031 39.7196C89.1031 39.9239 89.0025 40.0876 88.8013 40.2097C88.5998 40.3317 88.3374 40.3929 88.0138 40.3929C87.6508 40.3929 87.3553 40.3087 87.1276 40.1403C86.8999 39.9719 86.7759 39.7558 86.7564 39.4915Z" fill="#18354A"/>
<path d="M81.7361 39.4915H80.7061C80.7193 40.033 80.9357 40.4569 81.3548 40.7641C81.7739 41.0713 82.3233 41.2246 83.0033 41.2246C83.4061 41.2246 83.7694 41.1602 84.0927 41.0316C84.4162 40.9026 84.6704 40.7181 84.8553 40.4771C85.0404 40.2362 85.1325 39.957 85.1325 39.6401C85.1325 39.2837 85.0435 39.0014 84.8653 38.7936C84.6872 38.5854 84.4494 38.4337 84.1523 38.3382C83.8552 38.2423 83.4887 38.1713 83.0528 38.125C82.7296 38.0855 82.4949 38.0509 82.3501 38.0212C82.2048 37.9916 82.0843 37.9386 81.9884 37.8626C81.8928 37.7869 81.8449 37.673 81.8449 37.521C81.8449 37.3166 81.9408 37.1545 82.1322 37.0359C82.3233 36.917 82.5744 36.8578 82.8847 36.8578C83.1951 36.8578 83.4524 36.9319 83.6571 37.0804C83.8618 37.229 83.9772 37.4188 84.0037 37.6497H85.0435C85.0107 37.135 84.7944 36.7354 84.3948 36.4515C83.9955 36.1677 83.4758 36.0258 82.8352 36.0258C82.4457 36.0258 82.0975 36.0917 81.7903 36.2238C81.4835 36.356 81.2425 36.5424 81.0675 36.7833C80.8928 37.0243 80.8051 37.2999 80.8051 37.6103C80.8051 37.9402 80.8928 38.2026 81.0675 38.3975C81.2425 38.5924 81.4734 38.7343 81.7607 38.8232C82.048 38.9122 82.4126 38.9834 82.8551 39.0361C83.1784 39.0759 83.4177 39.1137 83.5732 39.1503C83.7281 39.1862 83.852 39.2474 83.9444 39.3332C84.0368 39.419 84.0829 39.5477 84.0829 39.7196C84.0829 39.9239 83.9823 40.0876 83.7811 40.2097C83.5795 40.3317 83.3171 40.3929 82.9935 40.3929C82.6305 40.3929 82.335 40.3087 82.1073 40.1403C81.8796 39.9719 81.7557 39.7558 81.7361 39.4915Z" fill="#18354A"/>
<path d="M75.393 37.2687C75.1852 37.6614 75.0811 38.1187 75.0811 38.64C75.0811 39.1553 75.1883 39.6073 75.4031 39.9968C75.6176 40.3863 75.9213 40.6881 76.3143 40.9029C76.7069 41.1173 77.1674 41.2246 77.6957 41.2246C78.3028 41.2246 78.8096 41.0596 79.2155 40.7297C79.6217 40.3992 79.8709 39.9769 79.9633 39.4622H78.8938C78.8209 39.7457 78.6727 39.9656 78.4482 40.1204C78.2236 40.2756 77.9464 40.3532 77.6162 40.3532C77.2005 40.3532 76.8671 40.2245 76.6161 39.9671C76.3654 39.7095 76.2266 39.3597 76.2001 38.9172V38.8579H80.0226C80.0424 38.7192 80.0522 38.5842 80.0522 38.452C80.0459 37.9635 79.9352 37.5377 79.7207 37.1747C79.506 36.8114 79.2123 36.5307 78.8392 36.3326C78.4665 36.1349 78.0356 36.0356 77.5471 36.0356C77.0649 36.0356 76.6375 36.1428 76.2648 36.3576C75.8917 36.572 75.6012 36.8757 75.393 37.2687ZM78.9632 38.0758H76.2398C76.2793 37.7191 76.4262 37.4337 76.6804 37.2192C76.9346 37.0044 77.2368 36.8972 77.5868 36.8972C77.9628 36.8972 78.2747 37.0013 78.5223 37.2091C78.7702 37.4169 78.9168 37.7058 78.9632 38.0758Z" fill="#18354A"/>
<path d="M73.7297 36.5903C73.35 36.2207 72.8599 36.0356 72.2591 36.0356C71.5596 36.0356 71.0181 36.2768 70.6352 36.7587L70.5163 36.0952H69.5853V41.1653H70.6551V38.6104C70.6551 38.0953 70.7752 37.691 71.0165 37.3974C71.2574 37.1034 71.5892 36.9568 72.0115 36.9568C72.4076 36.9568 72.7082 37.0823 72.9126 37.333C73.1173 37.5838 73.2198 37.9503 73.2198 38.4322V41.1653H74.299V38.3726C74.299 37.5541 74.1091 36.9599 73.7297 36.5903Z" fill="#18354A"/>
<path d="M67.4662 36.0952V41.1653H68.5357V36.0952H67.4662Z" fill="#18354A"/>
<path d="M68.4663 34.2483C68.3408 34.1262 68.1856 34.065 68.0008 34.065C67.816 34.065 67.6608 34.1262 67.5353 34.2483C67.4101 34.3703 67.3473 34.5239 67.3473 34.7087C67.3473 34.8935 67.4101 35.0471 67.5353 35.1692C67.6608 35.2912 67.816 35.3524 68.0008 35.3524C68.1856 35.3524 68.3408 35.2912 68.4663 35.1692C68.5915 35.0471 68.6542 34.8935 68.6542 34.7087C68.6542 34.5239 68.5915 34.3703 68.4663 34.2483Z" fill="#18354A"/>
<path d="M63.1981 39.4915H62.1683C62.1813 40.033 62.3976 40.4569 62.8168 40.7641C63.2362 41.0713 63.7856 41.2246 64.4656 41.2246C64.8683 41.2246 65.2313 41.1602 65.5549 41.0316C65.8785 40.9026 66.1327 40.7181 66.3172 40.4771C66.5023 40.2362 66.5948 39.957 66.5948 39.6401C66.5948 39.2837 66.5055 39.0014 66.3273 38.7936C66.1491 38.5854 65.9113 38.4337 65.6142 38.3382C65.3174 38.2423 64.951 38.1713 64.5151 38.125C64.1915 38.0855 63.9572 38.0509 63.8121 38.0212C63.6667 37.9916 63.5462 37.9386 63.4507 37.8626C63.3548 37.7869 63.3069 37.673 63.3069 37.521C63.3069 37.3166 63.4027 37.1545 63.5942 37.0359C63.7856 36.917 64.0364 36.8578 64.3467 36.8578C64.6573 36.8578 64.9147 36.9319 65.1191 37.0804C65.3238 37.229 65.4395 37.4188 65.4657 37.6497H66.5055C66.4727 37.135 66.2563 36.7354 65.8571 36.4515C65.4575 36.1677 64.9377 36.0258 64.2972 36.0258C63.9077 36.0258 63.5595 36.0917 63.2526 36.2238C62.9454 36.356 62.7045 36.5424 62.5298 36.7833C62.3547 37.0243 62.2674 37.2999 62.2674 37.6103C62.2674 37.9402 62.3547 38.2026 62.5298 38.3975C62.7045 38.5924 62.9357 38.7343 63.2227 38.8232C63.51 38.9122 63.8746 38.9834 64.317 39.0361C64.6406 39.0759 64.8797 39.1137 65.0352 39.1503C65.19 39.1862 65.314 39.2474 65.4064 39.3332C65.4988 39.419 65.5448 39.5477 65.5448 39.7196C65.5448 39.9239 65.4442 40.0876 65.243 40.2097C65.0415 40.3317 64.7791 40.3929 64.4558 40.3929C64.0925 40.3929 63.7973 40.3087 63.5693 40.1403C63.3419 39.9719 63.2179 39.7558 63.1981 39.4915Z" fill="#18354A"/>
<path d="M61.2966 36.0952H60.2274V38.6103C60.2274 39.1317 60.1117 39.5426 59.8808 39.8432C59.6497 40.1434 59.3295 40.2939 58.9202 40.2939C58.5307 40.2939 58.2367 40.1652 58.0387 39.9075C57.8406 39.6502 57.7416 39.2736 57.7416 38.7788V36.0952H56.6721V38.8876C56.6721 39.7063 56.8573 40.3002 57.2269 40.6701C57.5965 41.0398 58.0784 41.2246 58.6726 41.2246C59.333 41.2246 59.8543 40.9902 60.2372 40.5216L60.3561 41.1653H61.2966V36.0952Z" fill="#18354A"/>
<path d="M54.7316 36.3475C54.3683 36.1396 53.9557 36.0355 53.4937 36.0355C52.8005 36.0355 52.2524 36.3065 51.8499 36.8477V34.2334H50.7805V41.1653H51.7112L51.8401 40.4323C52.0117 40.6767 52.2363 40.8698 52.5132 41.0117C52.7907 41.1536 53.1171 41.2246 53.4937 41.2246C53.9557 41.2246 54.3683 41.1158 54.7316 40.8978C55.0946 40.6802 55.3784 40.3746 55.5831 39.9819C55.7878 39.589 55.89 39.1383 55.89 38.6302C55.89 38.0953 55.7878 37.6333 55.5831 37.2438C55.3784 36.8543 55.0946 36.5556 54.7316 36.3475ZM54.3897 39.8533C54.116 40.1668 53.7577 40.3235 53.3155 40.3235C52.873 40.3235 52.5163 40.1652 52.246 39.8482C51.9754 39.5313 51.8401 39.1219 51.8401 38.6201C51.8401 38.125 51.9754 37.7225 52.246 37.4122C52.5163 37.1019 52.873 36.9467 53.3155 36.9467C53.7577 36.9467 54.116 37.1034 54.3897 37.4169C54.6638 37.7307 54.8007 38.1351 54.8007 38.6302C54.8007 39.132 54.6638 39.5395 54.3897 39.8533Z" fill="#18354A"/>
</g>
</g>
</g>
<defs>
<clipPath id="clip0_1_799">
<rect width="159" height="41" fill="white" transform="translate(0 0.75)"/>
</clipPath>
<clipPath id="clip1_1_799">
<rect width="159" height="41" fill="white" transform="translate(0 0.75)"/>
</clipPath>
<clipPath id="clip2_1_799">
<rect width="158.954" height="41" fill="white" transform="translate(0.0230713 0.75)"/>
</clipPath>
</defs>
</svg>
